<svg xmlns="http://www.w3.org/2000/svg" viewBox="0 0 500 500"><defs><style>.cls-1{fill:#fff;}.cls-2{fill:#464ca3;}.cls-3{fill:#e0d5c4;}</style></defs><g id="BACKGROUND"><rect class="cls-1" width="500" height="500"/></g><g id="OBJECTS"><path class="cls-2" d="M212.45,353.29l-58.22-58.22a9.64,9.64,0,0,1,0-13.64l12-12,49.9,49.91L330.37,177.16l14.42,11.58A8.14,8.14,0,0,1,346,200.18L223.49,352.69A7.42,7.42,0,0,1,212.45,353.29Z"/><path class="cls-3" d="M215.75,300.9l-34.53-34.54L192,252.91a8.55,8.55,0,0,1,12.72-.69l8.85,8.85L322.34,125.75a8.78,8.78,0,0,1,12.34-1.35l13.92,11.18Z"/></g></svg>